<svg width="800" height="800" viewBox="0 0 800 800" fill="none" xmlns="http://www.w3.org/2000/svg">
<circle cx="400" cy="400" r="400" fill="black"/>
<path d="M543.343 386.333C543.343 410.357 522.972 429.833 497.843 429.833C472.714 429.833 452.343 410.357 452.343 386.333C452.343 362.308 472.714 342.833 497.843 342.833C522.972 342.833 543.343 362.308 543.343 386.333Z" fill="url(#paint0_linear_102_3)"/>
<path d="M347.343 386.333C347.343 410.357 326.972 429.833 301.843 429.833C276.714 429.833 256.343 410.357 256.343 386.333C256.343 362.308 276.714 342.833 301.843 342.833C326.972 342.833 347.343 362.308 347.343 386.333Z" fill="url(#paint1_linear_102_3)"/>
<path d="M461.758 412.833C455.853 405.495 452.343 396.306 452.343 386.333C452.343 379.52 453.981 373.073 456.901 367.333H342.785C345.705 373.073 347.343 379.52 347.343 386.333C347.343 396.306 343.832 405.495 337.928 412.833H461.758Z" fill="url(#paint2_linear_102_3)"/>
<path fill-rule="evenodd" clip-rule="evenodd" d="M101.999 292.783C55.7523 378.528 69.3295 455.948 139.561 574.137C151.816 594.76 177.446 602.883 199.716 593.964L362.343 528.833C405.389 512.493 419.703 522.753 441.343 528.833L602.72 593.625C625.321 602.699 651.346 594.184 663.408 573.026C729.371 457.308 743.846 380.089 698.877 293.019C669.38 235.905 605.599 207.334 541.363 204.93C455.521 201.719 375.724 202.694 263.116 206.526C198.19 208.736 132.838 235.606 101.999 292.783ZM205.258 497.158C163.097 424.075 155.527 393.073 194.609 316.656C202.998 300.253 220.341 290.594 238.761 290.949C374.551 293.568 454.088 292.521 566.338 290.765C583.453 290.497 599.773 298.889 608.35 313.701C649.989 385.609 637.126 418.389 597.292 496.577C595.263 500.56 590.872 502.743 586.488 501.871C559.493 496.502 466.141 477.889 441.343 472.333C412.255 465.816 395.129 464.94 362.343 472.333C334.286 478.659 241.839 496.859 215.752 501.979C211.577 502.798 207.384 500.843 205.258 497.158Z" fill="url(#paint3_linear_102_3)"/>
<defs>
<linearGradient id="paint0_linear_102_3" x1="93.3428" y1="265.333" x2="691.843" y2="413.833" gradientUnits="userSpaceOnUse">
<stop offset="0.236759" stop-color="#FF00C7"/>
<stop offset="0.812501" stop-color="#20007C"/>
<stop offset="1" stop-color="#20007C"/>
</linearGradient>
<linearGradient id="paint1_linear_102_3" x1="93.3428" y1="265.333" x2="691.843" y2="413.833" gradientUnits="userSpaceOnUse">
<stop offset="0.236759" stop-color="#FF00C7"/>
<stop offset="0.812501" stop-color="#20007C"/>
<stop offset="1" stop-color="#20007C"/>
</linearGradient>
<linearGradient id="paint2_linear_102_3" x1="93.3428" y1="265.333" x2="691.843" y2="413.833" gradientUnits="userSpaceOnUse">
<stop offset="0.236759" stop-color="#FF00C7"/>
<stop offset="0.812501" stop-color="#20007C"/>
<stop offset="1" stop-color="#20007C"/>
</linearGradient>
<linearGradient id="paint3_linear_102_3" x1="-10.5001" y1="-8.9999" x2="504" y2="629" gradientUnits="userSpaceOnUse">
<stop offset="0.398372" stop-color="#FF00D6"/>
<stop offset="0.774424" stop-color="#6A009C"/>
<stop offset="1" stop-color="#170058"/>
</linearGradient>
</defs>
</svg>
